# xmcd CD database file
#
# Track frame offsets:
#	182
#	17060
#	41117
#	64185
#	86190
#	107970
#	121615
#	142530
#	181907
#	197870
#	215895
#	227800
#
# Disc length: 3218 seconds
#
# Revision: 0
# Processed by: cddbd v1.5.1PL2 Copyright (c) Steve Scherf et al.
# Submitted via: CDex 1.51
#
DISCID=aa0c900c
DTITLE=Buddy Collette - Soft Touch
DYEAR=1996
DGENRE=Jazz
TTITLE0=Soft Touch
TTITLE1=Orlando Blues
TTITLE2=It's You
TTITLE3=My Funny Valentine
TTITLE4=The Cute Monster
TTITLE5=Walkin' Willie
TTITLE6=Changes
TTITLE7=Blue Sands
TTITLE8=Soft Touch (alt take)
TTITLE9=Moonlight in Vermont
TTITLE10=It's You (alt take)
TTITLE11=Soft Touch (alt take 2)
EXTD=YEAR: 1996
EXTT0=
EXTT1=
EXTT2=
EXTT3=
EXTT4=
EXTT5=
EXTT6=
EXTT7=
EXTT8=
EXTT9=
EXTT10=
EXTT11=
PLAYORDER=
